{"title":"The.Mist.2007.DC.DVDRip.XviD-EXViD","uid":6777279,"size":1485628029,"categoryP":"video","categoryS":"movies","magnet":"?xt=urn:btih:b84be32279e893409823ca32133c5e75533fbedb&amp;dn=The.Mist.2007.DC.DVDRip.XviD-EXViD&amp;tr=udp%3A%2F%2Ftracker.openbittorrent.com%3A80&amp;tr=udp%3A%2F%2Fopen.demonii.com%3A1337&amp;tr=udp%3A%2F%2Ftracker.coppersurfer.tk%3A6969&amp;tr=udp%3A%2F%2Fexodus.desync.com%3A6969","seeders":1,"leechers":0,"uploader":"LegendET","files":8,"time":1319784738,"description":"[img]http://lookpic.com/O/i2/556/XnmrzMy.jpeg[/img]\n\nThe.Mist.2007.DC.DVDRip.XviD-EXViD\n\n &lt;a href=&quot;\nhttp://www.imdb.com/title/tt0884328/&quot; rel=&quot;nofollow&quot; target=&quot;_NEW&quot;&gt;\nhttp://www.imdb.com/title/tt0884328/&lt;/a&gt;\nSubtitles: EN, ES\nDate: 2011.10\n\nDirector: Frank Darabont\n\nGenre: Horror | Sci-Fi | Thriller\n\nPlot:\nA freak storm unleashes a species of blood-thirsty creatures on a small town, where a small\nband of citizens hole-up in a supermarket and fight for their lives.\n\nCast:\nThomas Jane ... David Drayton\nMarcia Gay Harden ... Mrs. Carmody\nLaurie Holden ... Amanda Dunfrey\nAndre Braugher ... Brent Norton\nToby Jones ... Ollie Weeks\nWilliam Sadler ... Jim\nJeffrey DeMunn ... Dan Miller\nFrances Sternhagen ... Irene Reppler\nNathan Gamble ... Billy Drayton\nAlexa Davalos ... Sally\nChris Owen ... Norm\nSam Witwer ... Private Jessup\nRobert C. Treveiler ... Bud Brown (as Robert Treveiler)\nDavid Jensen ... Myron\nMelissa Suzanne McBride ... Woman With Kids at Home (as Melissa McBride)\n\nStats:\nFormat                          : AVI\nFormat/Info                      : Audio Video Interleave\nFile size                        : 1.37 GiB\nDuration                        : 2h 5mn\nOverall bit rate                : 1 555 Kbps\nWriting application              : Nandub v1.0rc2\nWriting library                  : Nandub build 1852/release\n\nVideo\nID                              : 0\nFormat                          : MPEG-4 Visual\nFormat profile                  : Advanced Simple@L5\nFormat settings, BVOP            : 2\nFormat settings, QPel            : No\nFormat settings, GMC            : No warppoints\nFormat settings, Matrix          : Default (H.263)\nCodec ID                        : XVID\nCodec ID/Hint                    : XviD\nDuration                        : 2h 5mn\nBit rate                        : 1 100 Kbps\nWidth                            : 624 pixels\nHeight                          : 336 pixels\nDisplay aspect ratio            : 1.857\nFrame rate                      : 23.976 fps\nColor space                      : YUV\nChroma subsampling              : 4:2:0\nBit depth                        : 8 bits\nScan type                        : Progressive\nCompression mode                : Lossy\nBits/(Pixel*Frame)              : 0.219\nStream size                      : 991 MiB (71%)\nWriting library                  : XviD 64\n\nAudio\nID                              : 1\nFormat                          : AC-3\nFormat/Info                      : Audio Coding 3\nMode extension                  : CM (complete main)\nCodec ID                        : 2000\nDuration                        : 2h 5mn\nBit rate mode                    : Constant\nBit rate                        : 448 Kbps\nChannel(s)                      : 6 channels\nChannel positions                : Front: L C R, Side: L R, LFE\nSampling rate                    : 48.0 KHz\nBit depth                        : 16 bits\nCompression mode                : Lossy\nStream size                      : 404 MiB (29%)\nAlignment                        : Aligned on interleaves\nInterleave, duration            : 96 ms (2.30 video frames)\nInterleave, preload duration    : 96 ms\n[img]http://img4up.com/up2/30818935193113161947.jpg[/img]\n\n[img]http://img4up.com/up2/15264263580311739111.jpg[/img]\n\nRelease notes:\nDiAMOND did the THEATRiCAL cut, this is the DC (B&amp;W version as envisioned by the director).\n\nenjoy!","torrent":{"xt":"urn:btih:b84be32279e893409823ca32133c5e75533fbedb","amp;dn":"The.Mist.2007.DC.DVDRip.XviD-EXViD","amp;tr":["udp%3A%2F%2Ftracker.openbittorrent.com%3A80","udp%3A%2F%2Fopen.demonii.com%3A1337","udp%3A%2F%2Ftracker.coppersurfer.tk%3A6969","udp%3A%2F%2Fexodus.desync.com%3A6969"],"infoHash":"b84be32279e893409823ca32133c5e75533fbedb","infoHashBuffer":{"type":"Buffer","data":[184,75,227,34,121,232,147,64,152,35,202,50,19,60,94,117,83,63,190,219]},"announce":[],"urlList":[]}}